<svg width="164" height="11" viewBox="0 0 164 11" fill="none" xmlns="http://www.w3.org/2000/svg">
<path d="M150.478 1.47713C146.926 1.20334 143.375 1.00046 139.823 0.766038C138.652 0.685294 137.474 0.683252 136.302 0.641873C133.758 0.550899 131.215 0.467792 128.671 0.376817C127.256 0.327148 125.836 0.269602 124.421 0.227806C124.008 0.219223 123.601 0.210636 123.189 0.209927C122.266 0.208341 121.343 0.222525 120.42 0.228812C116.225 0.221605 112.023 0.2301 107.828 0.222892C106.826 0.221171 105.83 0.250998 104.828 0.265023C102.351 0.300133 99.8798 0.343105 97.4087 0.378224C94.6157 0.420664 91.8289 0.431632 89.0358 0.521311C84.5184 0.655265 80.007 0.797094 75.4896 0.931048C72.8726 1.01316 70.2618 1.05593 67.6448 1.18528C63.1394 1.41373 58.64 1.63427 54.1346 1.85485C51.6754 1.9766 49.2102 2.07473 46.7509 2.25158C42.0935 2.58213 37.4361 2.90482 32.7787 3.23536C30.2891 3.41216 27.7996 3.54173 25.3159 3.81302C20.6764 4.3168 16.043 4.82055 11.4035 5.32433C10.4015 5.43283 9.3995 5.54137 8.39752 5.64987C6.39355 5.86688 4.40151 6.20984 2.4035 6.49771C2.27595 6.52111 2.15448 6.54454 2.02696 6.56006C1.79002 6.64626 1.57725 6.80334 1.40078 7.03136C1.13913 7.36945 0.986528 7.84158 0.985703 8.32184C0.984878 8.8021 1.13585 9.27476 1.39633 9.62163C1.63259 9.92908 2.04497 10.2132 2.39721 10.1587C4.80819 9.80856 7.21313 9.44265 9.63004 9.17912C11.8708 8.9389 14.1056 8.6908 16.3464 8.45059C18.7876 8.18709 21.2288 7.92359 23.67 7.6601C24.6537 7.55156 25.6375 7.41156 26.6273 7.3424C30.4346 7.07339 34.2419 6.81222 38.0492 6.55107C40.4234 6.38195 42.7976 6.22072 45.1719 6.05159C46.1495 5.98241 47.1332 5.89748 48.1169 5.84406C51.8877 5.65371 55.6644 5.47915 59.4351 5.30455C61.7243 5.19826 64.0073 5.08404 66.2965 4.97775C67.0676 4.93971 67.8327 4.89382 68.6038 4.87153C72.678 4.75256 76.7522 4.64144 80.8263 4.53035C83.1033 4.4634 85.3741 4.40431 87.651 4.33736C88.4586 4.31513 89.2722 4.27719 90.0797 4.2707C94.2813 4.22281 98.4829 4.1749 102.684 4.12701C105.307 4.09215 107.924 4.06514 110.547 4.07752C115.01 4.10093 119.472 4.11646 123.929 4.13986C124.809 4.14138 125.689 4.19016 126.57 4.23104C129.034 4.32975 131.493 4.42844 133.958 4.52716C135.804 4.60118 137.649 4.67523 139.501 4.74927C140.812 4.79876 142.117 4.92694 143.429 5.02367C147.284 5.29798 151.139 5.58806 154.987 5.90172C155.965 5.98213 156.942 6.07826 157.919 6.17442C158.97 6.2707 160.02 6.37485 161.064 6.52624C161.228 6.55801 161.386 6.59767 161.549 6.64519C161.962 6.75612 162.357 6.7253 162.728 6.45038C163.068 6.19116 163.324 5.75857 163.434 5.26275C163.654 4.22388 163.17 3.11296 162.37 2.82028C161.666 2.56714 160.937 2.46353 160.215 2.36781C159.717 2.30397 159.225 2.23227 158.728 2.16843C157.775 2.04082 156.816 1.97615 155.862 1.88004C154.072 1.70375 152.275 1.59835 150.478 1.46142L150.478 1.47713Z" fill="#8B5CF6"/>
</svg>
