<svg width="36" height="36" viewBox="0 0 36 36" fill="none" xmlns="http://www.w3.org/2000/svg">
<g clip-path="url(#clip0_14187_98882)">
<path d="M23.9722 13.0266C23.8915 13.0266 23.81 13.0036 23.7378 12.9555C23.543 12.8258 23.4902 12.5628 23.6199 12.3681L28.1957 5.49272C28.3254 5.29789 28.5883 5.24507 28.7831 5.37477C28.978 5.50441 29.0307 5.76742 28.9011 5.96219L24.3253 12.8375C24.2436 12.9602 24.1091 13.0266 23.9722 13.0266Z" fill="#B1DBFC"/>
<path d="M22.7248 13.3552C22.6611 13.3552 22.5963 13.3407 22.5355 13.3102L18.6052 11.3417C18.3959 11.2369 18.3112 10.9823 18.4161 10.7732C18.5208 10.5639 18.7754 10.4792 18.9847 10.5841L22.915 12.5526C23.1242 12.6574 23.2089 12.9119 23.1041 13.1211C23.0298 13.2695 22.8802 13.3552 22.7248 13.3552Z" fill="#B1DBFC"/>
<path d="M13.1835 15.8146C13.0752 15.8146 12.9669 15.7734 12.8841 15.6908C12.7185 15.5255 12.7183 15.2572 12.8836 15.0916L16.9689 10.9994C17.1341 10.8338 17.4024 10.8335 17.568 10.9989C17.7336 11.1641 17.7338 11.4324 17.5685 11.598L13.4833 15.6903C13.4006 15.7732 13.292 15.8146 13.1835 15.8146Z" fill="#B1DBFC"/>
<path d="M8.00223 18.7638C7.84832 18.7638 7.69997 18.6797 7.62494 18.5334C7.51812 18.3252 7.60028 18.0698 7.80852 17.963L11.3322 16.1553C11.5404 16.0483 11.7957 16.1306 11.9025 16.3388C12.0093 16.547 11.9272 16.8023 11.7189 16.9092L8.19527 18.7169C8.13338 18.7488 8.0673 18.7638 8.00223 18.7638Z" fill="#B1DBFC"/>
<path d="M7.00737 20.1339C7.73093 20.1339 8.31748 19.5473 8.31748 18.8238C8.31748 18.1002 7.73093 17.5137 7.00737 17.5137C6.28382 17.5137 5.69727 18.1002 5.69727 18.8238C5.69727 19.5473 6.28382 20.1339 7.00737 20.1339Z" fill="#F93A46"/>
<path d="M12.5035 17.381C13.227 17.381 13.8136 16.7944 13.8136 16.0709C13.8136 15.3473 13.227 14.7607 12.5035 14.7607C11.7799 14.7607 11.1934 15.3473 11.1934 16.0709C11.1934 16.7944 11.7799 17.381 12.5035 17.381Z" fill="#F99640"/>
<path d="M17.9996 11.8751C18.7231 11.8751 19.3097 11.2885 19.3097 10.565C19.3097 9.84144 18.7231 9.25488 17.9996 9.25488C17.276 9.25488 16.6895 9.84144 16.6895 10.565C16.6895 11.2885 17.276 11.8751 17.9996 11.8751Z" fill="#FDDE2F"/>
<path d="M23.4957 14.628C24.2192 14.628 24.8058 14.0415 24.8058 13.3179C24.8058 12.5944 24.2192 12.0078 23.4957 12.0078C22.7721 12.0078 22.1855 12.5944 22.1855 13.3179C22.1855 14.0415 22.7721 14.628 23.4957 14.628Z" fill="#24DD8A"/>
<path d="M28.9917 6.37022C29.7153 6.37022 30.3019 5.78366 30.3019 5.06011C30.3019 4.33656 29.7153 3.75 28.9917 3.75C28.2682 3.75 27.6816 4.33656 27.6816 5.06011C27.6816 5.78366 28.2682 6.37022 28.9917 6.37022Z" fill="#0F9DF9"/>
<path d="M8.42449 23.6729H5.59063C5.39492 23.6729 5.23633 23.8315 5.23633 24.0272V31.8264H8.77884V24.0272C8.77879 23.8315 8.62015 23.6729 8.42449 23.6729Z" fill="#F93A46"/>
<path d="M13.9206 20.9199H11.0867C10.891 20.9199 10.7324 21.0786 10.7324 21.2742V31.8261H14.2749V21.2743C14.2749 21.0786 14.1163 20.9199 13.9206 20.9199Z" fill="#F99640"/>
<path d="M19.4167 15.3906H16.5828C16.3871 15.3906 16.2285 15.5493 16.2285 15.7449V31.8262H19.771V15.7449C19.771 15.5493 19.6123 15.3906 19.4167 15.3906Z" fill="#FDDE2F"/>
<path d="M24.9128 18.167H22.0789C21.8833 18.167 21.7246 18.3256 21.7246 18.5213V31.8258H25.2671V18.5213C25.2671 18.3256 25.1084 18.167 24.9128 18.167Z" fill="#24DD8A"/>
<path d="M30.4089 9.87109H27.575C27.3793 9.87109 27.2207 10.0297 27.2207 10.2254V31.8266H30.7632V10.2255C30.7632 10.0297 30.6046 9.87109 30.4089 9.87109Z" fill="#0F9DF9"/>
<path d="M31.7113 32.2497H4.28889C4.05488 32.2497 3.86523 32.0601 3.86523 31.826C3.86523 31.5919 4.05494 31.4023 4.28889 31.4023H31.7113C31.9454 31.4023 32.135 31.592 32.135 31.826C32.135 32.06 31.9454 32.2497 31.7113 32.2497Z" fill="#0F9DF9"/>
</g>
<defs>
<clipPath id="clip0_14187_98882">
<rect width="28.5" height="28.5" fill="white" transform="translate(3.75 3.75)"/>
</clipPath>
</defs>
</svg>
